<?xml version="1.0" encoding="iso-8859-1"?>
<!-- Generator: Adobe Illustrator 19.0.0, SVG Export Plug-In . SVG Version: 6.00 Build 0)  -->
<svg xmlns="http://www.w3.org/2000/svg" xmlns:xlink="http://www.w3.org/1999/xlink" version="1.1" id="Layer_1" x="0px" y="0px" viewBox="0 0 512 512" style="enable-background:new 0 0 512 512;" xml:space="preserve" width="512px" height="512px">
<g>
	<g>
		<g>
			<path d="M256,0C114.609,0,0,114.617,0,256c0,141.391,114.609,256,256,256s256-114.609,256-256C512,114.617,397.391,0,256,0z      M256,21.336c31.688,0,62.422,6.195,91.344,18.43c20.828,8.812,40.078,20.469,57.469,34.766     c-30.781-0.523-83.141-4.297-120.703-22.172C255.875,38.922,229.016,31,207.547,26.336C223.359,23.024,239.547,21.336,256,21.336     z M161.564,41.125c10.828,0.664,59.797,5,113.375,30.5c44.906,21.367,106.266,24.359,137.172,24.359     c6.672,0,11.922-0.133,15.281-0.266c16.436,17.555,29.952,37.282,40.296,58.852c-12.453,1.289-42.391,3.812-79.062,2.961     c-44.109-1.031-107.312-7.297-157.859-31.305c-60.953-28.961-110.578-36.32-139.031-37.789     C112.111,68.453,135.58,52.554,161.564,41.125z M39.766,164.664c8.406-19.867,19.406-38.289,32.796-55.031     c6.547-0.289,19.969-0.375,38.578,2.062c24.766,3.234,64.016,11.727,110.469,33.797C265,166.109,321.156,177.336,388.5,178.867     c5.281,0.125,10.406,0.172,15.375,0.172c39.984,0,68.734-3.5,72.469-3.977c6.594,17.93,10.922,36.508,12.953,55.516     c-24.047-5.438-84.906-12.773-197.969,10.984c-69.359,14.57-133.531,8.828-190.734-17.062     c-37.266-16.867-59.344-36.953-66.719-44.367C35.656,174.922,37.609,169.766,39.766,164.664z M255.999,490.672     c-31.687,0-62.421-6.219-91.343-18.438c-2.516-1.062-5.016-2.188-7.5-3.344c23.297,1.047,53.672,0.125,88.938-6.312     c50.219-9.125,77.359-2.625,91.281,4.469c3.625,1.828,6.5,3.781,8.812,5.656C317.609,484.609,287.265,490.672,255.999,490.672z      M421.938,421.922c-16.453,16.469-34.969,30.203-55.234,41.047c-3.828-4.391-9.266-9.203-16.984-13.516     c-24.547-13.719-60.703-16.375-107.438-7.859c-75.922,13.828-128.625,0.453-129.656,0.203     c-7.891-6.109-15.422-12.719-22.562-19.875c-19.25-19.25-34.797-41.328-46.328-65.75c7.344-2.969,22.047-7.969,44.062-10.969     c30.375-4.125,81.234-5.156,150.984,13.344c34.438,9.125,69.531,12.25,101.469,12.25c26.812,0,51.406-2.188,71.453-4.906     c23.25-3.125,42.844-7.188,56.953-10.562C457.094,380.078,441.406,402.453,421.938,421.922z M408.408,344.813     c-41.875,5.609-104.344,8.984-164.156-6.891c-117.984-31.281-186.859-10.469-208.766-1.438     C26.094,310.766,21.328,283.75,21.328,256c0-17.984,2.016-35.664,5.969-52.875c12.344,10.797,33.766,26.898,64.5,40.805     c27.109,12.281,56.281,20.43,86.672,24.242c13.281,1.656,26.812,2.484,40.547,2.484c24.984,0,50.656-2.734,76.703-8.219     c74.125-15.57,123.984-17.062,152.766-15.57c23.109,1.195,36.641,4.453,42.141,6.078c0.016,1.016,0.047,2.031,0.047,3.055     c0,25.703-4.078,50.766-12.156,74.766C466.392,334.11,440.908,340.454,408.408,344.813z" fill="#FFFFFF"/>
			<path d="M170.672,362.672c-35.344,0-64,14.312-64,32c0,17.656,28.656,32,64,32s64-14.344,64-32     C234.672,376.984,206.016,362.672,170.672,362.672z M202,400.141c-8.719,3.344-19.844,5.188-31.328,5.188     c-11.5,0-22.625-1.844-31.344-5.188c-5.078-1.969-8.234-4.016-9.984-5.469c1.75-1.469,4.906-3.5,9.984-5.469     c8.719-3.344,19.844-5.203,31.344-5.203c11.484,0,22.609,1.859,31.328,5.203c5.094,1.969,8.25,4,10,5.469     C210.25,396.125,207.094,398.172,202,400.141z" fill="#FFFFFF"/>
		</g>
	</g>
</g>
<g>
</g>
<g>
</g>
<g>
</g>
<g>
</g>
<g>
</g>
<g>
</g>
<g>
</g>
<g>
</g>
<g>
</g>
<g>
</g>
<g>
</g>
<g>
</g>
<g>
</g>
<g>
</g>
<g>
</g>
</svg>
