<?xml version="1.0" encoding="iso-8859-1"?>
<!-- Generator: Adobe Illustrator 19.0.0, SVG Export Plug-In . SVG Version: 6.00 Build 0)  -->
<svg xmlns="http://www.w3.org/2000/svg" xmlns:xlink="http://www.w3.org/1999/xlink" version="1.1" id="Layer_1" x="0px" y="0px" viewBox="0 0 512 512" style="enable-background:new 0 0 512 512;" xml:space="preserve" width="512px" height="512px">
<g>
	<g>
		<path d="M256,0C114.625,0,0,114.617,0,256c0,141.391,114.625,256,256,256c141.391,0,256-114.609,256-256    C512,114.617,397.391,0,256,0z M421.938,421.938c-21.562,21.562-46.656,38.484-74.594,50.297    c-28.922,12.234-59.656,18.438-91.344,18.438s-62.406-6.203-91.328-18.438c-27.953-11.812-53.047-28.734-74.609-50.297    c-21.547-21.547-38.469-46.656-50.297-74.594C27.531,318.422,21.344,287.703,21.344,256c0-31.688,6.188-62.414,18.422-91.336    c11.828-27.938,28.75-53.039,50.297-74.594c21.562-21.562,46.656-38.484,74.609-50.305c28.922-12.227,59.641-18.43,91.328-18.43    s62.422,6.203,91.344,18.43c27.938,11.82,53.031,28.742,74.594,50.305c21.562,21.555,38.484,46.656,50.297,74.594    c12.234,28.922,18.438,59.648,18.438,91.336c0,31.703-6.203,62.422-18.438,91.344C460.422,375.281,443.5,400.391,421.938,421.938z    " fill="#FFFFFF"/>
	</g>
</g>
<g>
	<g>
		<path d="M309.344,448c-5.906,0-10.672,4.781-10.672,10.672s4.766,10.656,10.672,10.656c5.875,0,10.656-4.766,10.656-10.656    S315.219,448,309.344,448z" fill="#FFFFFF"/>
	</g>
</g>
<g>
	<g>
		<path d="M160,320c-5.891,0-10.656,4.781-10.656,10.672s4.766,10.656,10.656,10.656s10.672-4.766,10.672-10.656    S165.891,320,160,320z" fill="#FFFFFF"/>
	</g>
</g>
<g>
	<g>
		<path d="M53.344,256c-5.906,0-10.672,4.781-10.672,10.672s4.766,10.656,10.672,10.656c5.875,0,10.656-4.766,10.656-10.656    S59.219,256,53.344,256z" fill="#FFFFFF"/>
	</g>
</g>
<g>
	<g>
		<path d="M213.344,53.336c-5.906,0-10.672,4.773-10.672,10.664s4.766,10.672,10.672,10.672C219.219,74.672,224,69.891,224,64    S219.219,53.336,213.344,53.336z" fill="#FFFFFF"/>
	</g>
</g>
<g>
	<g>
		<path d="M362.672,160c-5.891,0-10.672,4.781-10.672,10.672s4.781,10.664,10.672,10.664s10.672-4.773,10.672-10.664    S368.562,160,362.672,160z" fill="#FFFFFF"/>
	</g>
</g>
<g>
	<g>
		<path d="M138.672,74.672c-17.672,0-32,14.328-32,32s14.328,32,32,32s32-14.328,32-32S156.344,74.672,138.672,74.672z     M138.672,117.336c-5.891,0-10.672-4.781-10.672-10.664S132.781,96,138.672,96c5.875,0,10.672,4.789,10.672,10.672    S144.547,117.336,138.672,117.336z" fill="#FFFFFF"/>
	</g>
</g>
<g>
	<g>
		<path d="M106.672,224c-17.672,0-32,14.328-32,32s14.328,32,32,32s32-14.328,32-32S124.344,224,106.672,224z M106.672,266.672    C100.781,266.672,96,261.891,96,256c0-5.875,4.781-10.664,10.672-10.664c5.875,0,10.672,4.789,10.672,10.664    C117.344,261.891,112.547,266.672,106.672,266.672z" fill="#FFFFFF"/>
	</g>
</g>
<g>
	<g>
		<path d="M277.344,366.672c-17.688,0-32,14.328-32,32s14.312,32,32,32c17.672,0,32-14.328,32-32S295.016,366.672,277.344,366.672z     M277.344,409.328c-5.891,0-10.672-4.781-10.672-10.656S271.453,388,277.344,388c5.875,0,10.656,4.797,10.656,10.672    S283.219,409.328,277.344,409.328z" fill="#FFFFFF"/>
	</g>
</g>
<g>
	<g>
		<path d="M437.344,245.336c-17.688,0-32,14.328-32,31.992c0,17.688,14.312,32,32,32c17.656,0,32-14.312,32-32    C469.344,259.664,455,245.336,437.344,245.336z M437.344,288c-5.891,0-10.672-4.781-10.672-10.672    c0-5.875,4.781-10.656,10.672-10.656c5.875,0,10.656,4.781,10.656,10.656C448,283.219,443.219,288,437.344,288z" fill="#FFFFFF"/>
	</g>
</g>
<g>
	<g>
		<path d="M416,320c-17.672,0-32,14.328-32,32s14.328,32,32,32s32-14.328,32-32S433.672,320,416,320z M416,362.672    c-5.875,0-10.656-4.781-10.656-10.672c0-5.875,4.781-10.672,10.656-10.672s10.672,4.797,10.672,10.672    C426.672,357.891,421.875,362.672,416,362.672z" fill="#FFFFFF"/>
	</g>
</g>
<g>
	<g>
		<path d="M192,362.672c-23.562,0-42.656,19.094-42.656,42.656S168.438,448,192,448s42.672-19.109,42.672-42.672    S215.562,362.672,192,362.672z M192,426.672c-11.766,0-21.328-9.562-21.328-21.344c0-11.75,9.562-21.328,21.328-21.328    s21.344,9.578,21.344,21.328C213.344,417.109,203.766,426.672,192,426.672z" fill="#FFFFFF"/>
	</g>
</g>
<g>
	<g>
		<path d="M224,85.336c-23.563,0-42.656,19.102-42.656,42.664c0,23.57,19.094,42.672,42.656,42.672S266.672,151.57,266.672,128    C266.672,104.438,247.563,85.336,224,85.336z M224,149.336c-11.766,0-21.328-9.57-21.328-21.336    c0-11.758,9.562-21.328,21.328-21.328s21.344,9.57,21.344,21.328C245.344,139.766,235.766,149.336,224,149.336z" fill="#FFFFFF"/>
	</g>
</g>
<g>
	<g>
		<path d="M362.672,64C339.109,64,320,83.109,320,106.672s19.109,42.664,42.672,42.664s42.672-19.102,42.672-42.664    S386.235,64,362.672,64z M362.672,128c-11.766,0-21.328-9.562-21.328-21.328s9.562-21.336,21.328-21.336S384,94.906,384,106.672    S374.438,128,362.672,128z" fill="#FFFFFF"/>
	</g>
</g>
<g>
</g>
<g>
</g>
<g>
</g>
<g>
</g>
<g>
</g>
<g>
</g>
<g>
</g>
<g>
</g>
<g>
</g>
<g>
</g>
<g>
</g>
<g>
</g>
<g>
</g>
<g>
</g>
<g>
</g>
</svg>
