<?xml version="1.0" encoding="iso-8859-1"?>
<!-- Generator: Adobe Illustrator 19.0.0, SVG Export Plug-In . SVG Version: 6.00 Build 0)  -->
<svg xmlns="http://www.w3.org/2000/svg" xmlns:xlink="http://www.w3.org/1999/xlink" version="1.1" id="Layer_1" x="0px" y="0px" viewBox="0 0 512 512" style="enable-background:new 0 0 512 512;" xml:space="preserve" width="512px" height="512px">
<g>
	<g>
		<g>
			<path d="M256,0C114.609,0,0,114.617,0,256c0,141.391,114.609,256,256,256s256-114.609,256-256C512,114.617,397.391,0,256,0z      M421.938,421.938c-21.562,21.547-46.656,38.484-74.609,50.297c-28.906,12.234-59.641,18.438-91.328,18.438     s-62.422-6.203-91.344-18.438c-27.938-11.812-53.031-28.75-74.594-50.297c-21.562-21.562-38.484-46.656-50.297-74.609     C27.531,318.422,21.328,287.688,21.328,256s6.203-62.422,18.438-91.336c11.812-27.938,28.734-53.039,50.297-74.602     c21.562-21.555,46.656-38.477,74.594-50.297c28.922-12.227,59.656-18.43,91.344-18.43s62.422,6.203,91.328,18.43     c27.953,11.82,53.047,28.742,74.609,50.297c21.547,21.562,38.484,46.664,50.297,74.602     c12.234,28.914,18.438,59.648,18.438,91.336s-6.203,62.422-18.438,91.328C460.422,375.281,443.484,400.375,421.938,421.938z" fill="#FFFFFF"/>
			<path d="M362.672,309.328c-17.688,0-32,14.344-32,32c0,17.688,14.312,32,32,32c17.672,0,32-14.312,32-32     C394.672,323.672,380.344,309.328,362.672,309.328z M362.672,352c-5.891,0-10.672-4.797-10.672-10.672     s4.781-10.656,10.672-10.656c5.875,0,10.656,4.781,10.656,10.656S368.547,352,362.672,352z" fill="#FFFFFF"/>
			<path d="M234.672,138.664c17.672,0,32-14.32,32-32c0-17.672-14.328-32-32-32c-17.688,0-32,14.328-32,32     C202.672,124.344,216.984,138.664,234.672,138.664z M234.672,96c5.875,0,10.656,4.789,10.656,10.664     c0,5.883-4.781,10.672-10.656,10.672c-5.891,0-10.672-4.789-10.672-10.672C224,100.789,228.781,96,234.672,96z" fill="#FFFFFF"/>
			<path d="M362.672,149.336C339.109,149.336,320,168.438,320,192s19.109,42.664,42.672,42.664s42.656-19.102,42.656-42.664     S386.234,149.336,362.672,149.336z M362.672,213.336c-11.766,0-21.344-9.57-21.344-21.336s9.578-21.336,21.344-21.336     c11.75,0,21.328,9.57,21.328,21.336S374.422,213.336,362.672,213.336z" fill="#FFFFFF"/>
			<path d="M234.672,362.672c-23.562,0-42.672,19.094-42.672,42.656S211.109,448,234.672,448s42.656-19.109,42.656-42.672     S258.234,362.672,234.672,362.672z M234.672,426.672c-11.766,0-21.344-9.578-21.344-21.344c0-11.75,9.578-21.328,21.344-21.328     c11.75,0,21.328,9.578,21.328,21.328C256,417.094,246.422,426.672,234.672,426.672z" fill="#FFFFFF"/>
			<path d="M138.609,181.336c-41.234,0-74.656,33.43-74.656,74.664s33.422,74.672,74.656,74.672     c41.25,0,74.672-33.438,74.672-74.672S179.859,181.336,138.609,181.336z M138.609,309.328c-29.406,0-53.328-23.922-53.328-53.328     s23.922-53.336,53.328-53.336c29.422,0,53.344,23.93,53.344,53.336S168.031,309.328,138.609,309.328z" fill="#FFFFFF"/>
		</g>
	</g>
</g>
<g>
</g>
<g>
</g>
<g>
</g>
<g>
</g>
<g>
</g>
<g>
</g>
<g>
</g>
<g>
</g>
<g>
</g>
<g>
</g>
<g>
</g>
<g>
</g>
<g>
</g>
<g>
</g>
<g>
</g>
</svg>
