<?xml version="1.0" encoding="iso-8859-1"?>
<!-- Generator: Adobe Illustrator 19.0.0, SVG Export Plug-In . SVG Version: 6.00 Build 0)  -->
<svg xmlns="http://www.w3.org/2000/svg" xmlns:xlink="http://www.w3.org/1999/xlink" version="1.1" id="Layer_1" x="0px" y="0px" viewBox="0 0 512 512" style="enable-background:new 0 0 512 512;" xml:space="preserve" width="512px" height="512px">
<g>
	<g>
		<g>
			<path d="M256,0.008c-141.391,0-256,114.609-256,256s114.609,255.984,256,255.984s256-114.594,256-255.984     S397.391,0.008,256,0.008z M472.234,347.337c-8.906,21.046-20.703,40.468-35.187,57.999H266.672     c-5.891,0-10.672,4.781-10.672,10.656c0,5.906,4.781,10.688,10.672,10.688h150.375c-20.438,19.312-43.859,34.625-69.703,45.562     C318.422,484.461,287.688,490.68,256,490.68s-62.422-6.219-91.344-18.438c-27.938-11.812-53.031-28.75-74.594-50.312     c-17.531-17.531-32-37.406-43.156-59.25h102.422c5.891,0,10.672-4.781,10.672-10.688c0-5.875-4.781-10.656-10.672-10.656h-112     c-10.609-27.156-16-55.828-16-85.328H64c5.891,0,10.672-4.781,10.672-10.672S69.891,234.672,64,234.672H22.297     c2.172-24.156,8-47.625,17.469-70c2.203-5.211,4.578-10.328,7.141-15.336H288c5.891,0,10.672-4.773,10.672-10.664     s-4.781-10.664-10.672-10.664H59.281c8.859-13.602,19.141-26.289,30.781-37.938c9.625-9.633,19.969-18.328,30.953-26.062h60.312     c5.891,0,10.672-4.781,10.672-10.672s-4.781-10.664-10.672-10.664h-23.203c2.156-0.992,4.344-1.969,6.531-2.898     C193.578,27.539,224.312,21.336,256,21.336s62.422,6.203,91.344,18.438c27.938,11.812,53.031,28.734,74.594,50.297     c21.562,21.555,38.484,46.656,50.297,74.602c12.234,28.914,18.438,59.641,18.438,91.336H373.328     c-5.891,0-10.656,4.766-10.656,10.672c0,5.875,4.766,10.656,10.656,10.656h116.375     C487.531,301.493,481.703,324.962,472.234,347.337z" fill="#FFFFFF"/>
			<path d="M277.328,234.672c-35.344,0-64,14.328-64,32.008c0,17.656,28.656,32,64,32c35.359,0,64-14.344,64-32     C341.328,249,312.688,234.672,277.328,234.672z M308.672,272.133c-8.719,3.359-19.844,5.203-31.344,5.203     c-11.484,0-22.609-1.844-31.328-5.203c-5.094-1.953-8.25-4.016-10-5.453c1.75-1.469,4.906-3.516,10-5.469     c8.719-3.359,19.844-5.203,31.328-5.203c11.5,0,22.625,1.844,31.344,5.203c5.094,1.953,8.234,4,9.984,5.469     C316.906,268.117,313.766,270.18,308.672,272.133z" fill="#FFFFFF"/>
		</g>
	</g>
</g>
<g>
</g>
<g>
</g>
<g>
</g>
<g>
</g>
<g>
</g>
<g>
</g>
<g>
</g>
<g>
</g>
<g>
</g>
<g>
</g>
<g>
</g>
<g>
</g>
<g>
</g>
<g>
</g>
<g>
</g>
</svg>
