<?xml version="1.0" encoding="iso-8859-1"?>
<!-- Generator: Adobe Illustrator 19.0.0, SVG Export Plug-In . SVG Version: 6.00 Build 0)  -->
<svg xmlns="http://www.w3.org/2000/svg" xmlns:xlink="http://www.w3.org/1999/xlink" version="1.1" id="Layer_1" x="0px" y="0px" viewBox="0 0 512 512" style="enable-background:new 0 0 512 512;" xml:space="preserve" width="512px" height="512px">
<g>
	<g>
		<path d="M500.564,11.438c-23.453-23.453-79.109-9.695-147.391,30.906c-29.609-13.492-62.516-21.016-97.171-21.016    c-129.609,0-234.671,105.07-234.671,234.671c0,34.672,7.516,67.578,21.016,97.172c-40.609,68.281-54.359,123.937-30.922,147.39    c23.469,23.453,79.125,9.703,147.391-30.906c29.609,13.484,62.515,21.016,97.187,21.016    c129.593,0,234.671-105.062,234.671-234.671c0-34.656-7.531-67.562-21.031-97.164C510.268,90.554,524.018,34.891,500.564,11.438z     M126.423,463.406c-55.123,29.139-89.889,32.076-99.904,22.076c-10.016-10.016-7.062-44.78,22.078-99.921    c1.734-3.297,3.562-6.641,5.438-10c16,26.953,37.234,50.453,62.312,69.047c0.047-0.031,0.078-0.031,0.109-0.062    c6.688-3.531,13.516-7.375,20.453-11.5c-11.344-7.641-21.953-16.391-31.766-26.188c-19.594-19.609-34.984-42.438-45.719-67.828    c-11.125-26.297-16.766-54.219-16.766-83.031s5.641-56.75,16.766-83.031c10.734-25.406,26.125-48.218,45.719-67.82    c19.609-19.602,42.422-34.984,67.828-45.726c26.281-11.117,54.218-16.758,83.031-16.758c28.812,0,56.734,5.641,83.031,16.758    c25.391,10.742,48.219,26.125,67.812,45.726c9.812,9.805,18.562,20.422,26.203,31.766c4.125-6.945,7.969-13.773,11.5-20.453    c0.016-0.039,0.031-0.07,0.062-0.109c-18.609-25.078-42.094-46.312-69.047-62.312c3.359-1.883,6.703-3.703,10-5.445    c55.125-29.141,89.906-32.086,99.922-22.078c10,10.016,7.062,44.789-22.078,99.914c-14.969,28.328-35.031,58.898-59.625,90.867    c-25.656,33.359-55.078,66.688-87.438,99.047c-32.375,32.359-65.703,61.781-99.046,87.453    C185.329,428.376,154.751,448.439,126.423,463.406z M452.58,339.03c-10.75,25.391-26.125,48.219-45.734,67.828    c-19.594,19.594-42.422,34.969-67.812,45.719c-26.297,11.124-54.234,16.749-83.031,16.749c-25.875,0-51.046-4.562-74.953-13.562    c47.375-30.938,99.452-73.422,150.374-124.344s93.406-103.008,124.359-150.383c8.985,23.907,13.547,49.079,13.547,74.962    C469.33,284.811,463.689,312.733,452.58,339.03z" fill="#FFFFFF"/>
	</g>
</g>
<g>
</g>
<g>
</g>
<g>
</g>
<g>
</g>
<g>
</g>
<g>
</g>
<g>
</g>
<g>
</g>
<g>
</g>
<g>
</g>
<g>
</g>
<g>
</g>
<g>
</g>
<g>
</g>
<g>
</g>
</svg>
