<?xml version="1.0" encoding="iso-8859-1"?>
<!-- Generator: Adobe Illustrator 19.0.0, SVG Export Plug-In . SVG Version: 6.00 Build 0)  -->
<svg xmlns="http://www.w3.org/2000/svg" xmlns:xlink="http://www.w3.org/1999/xlink" version="1.1" id="Layer_1" x="0px" y="0px" viewBox="0 0 512 512" style="enable-background:new 0 0 512 512;" xml:space="preserve" width="512px" height="512px">
<g>
	<g>
		<g>
			<path d="M330.656,245.336H308.25c-1.344-6.578-3.922-12.961-7.75-18.75l15.828-15.844c4.172-4.164,4.172-10.914,0-15.086     c-4.156-4.164-10.922-4.164-15.078,0L285.406,211.5c-5.797-3.836-12.172-6.414-18.75-7.75v-22.414     c0-5.891-4.766-10.672-10.656-10.672c-5.906,0-10.672,4.781-10.672,10.672v22.414c-6.578,1.336-12.953,3.914-18.75,7.75     l-15.844-15.844c-4.156-4.164-10.922-4.164-15.078,0c-4.172,4.172-4.172,10.922,0,15.086l15.844,15.844     c-3.844,5.789-6.422,12.172-7.766,18.75h-22.406c-5.891,0-10.672,4.773-10.672,10.664s4.781,10.656,10.672,10.656h22.406     c1.344,6.594,3.922,12.969,7.766,18.75l-15.844,15.844c-4.172,4.172-4.172,10.922,0,15.094c4.156,4.156,10.922,4.156,15.078,0     l15.844-15.844c5.797,3.844,12.172,6.406,18.75,7.75v22.406c0,5.906,4.766,10.688,10.672,10.688     c5.891,0,10.656-4.781,10.656-10.688V308.25c6.578-1.344,12.953-3.906,18.75-7.75l15.844,15.844     c4.156,4.156,10.922,4.156,15.078,0c4.172-4.172,4.172-10.922,0-15.094L300.5,285.406c3.828-5.781,6.406-12.156,7.75-18.75     h22.406c5.891,0,10.672-4.766,10.672-10.656S336.547,245.336,330.656,245.336z M278.625,278.625     C272.578,284.672,264.547,288,256,288c-8.562,0-16.594-3.328-22.641-9.375c-12.469-12.469-12.469-32.773,0-45.25     C239.406,227.328,247.438,224,256,224c8.547,0,16.578,3.328,22.625,9.375C291.094,245.852,291.094,266.156,278.625,278.625z" fill="#FFFFFF"/>
			<path d="M512,256C512,114.617,397.375,0,256,0C114.609,0,0,114.617,0,256c0,141.375,114.609,256,256,256     c59.531,0,114.312-20.328,157.797-54.422c4.969,2.922,10.562,4.359,16.141,4.359c8.188,0,16.375-3.125,22.625-9.359     c10.516-10.516,12.188-26.516,5.016-38.766C491.656,370.312,512,315.531,512,256z M437.484,437.5     c-2.719,2.719-5.891,3.125-7.547,3.125c-1.641,0-4.812-0.406-7.531-3.125s-3.125-5.906-3.125-7.562     c0-1.641,0.406-4.812,3.125-7.531s5.891-3.125,7.531-3.125c1.656,0,4.828,0.406,7.547,3.125     C441.641,426.562,441.641,433.344,437.484,437.5z M441.282,400.032c-3.656-1.375-7.5-2.094-11.344-2.094     c-8.188,0-16.375,3.125-22.625,9.375c-9.188,9.188-11.609,22.562-7.297,33.969c-16.109,12.562-33.734,22.938-52.688,30.953     c-28.922,12.234-59.64,18.421-91.328,18.421s-62.422-6.188-91.344-18.422c-27.938-11.828-53.031-28.734-74.594-50.297     s-38.484-46.656-50.297-74.594C27.531,318.422,21.328,287.688,21.328,256s6.203-62.422,18.438-91.336     c11.812-27.945,28.734-53.039,50.297-74.602c21.562-21.555,46.656-38.477,74.594-50.297c28.922-12.234,59.656-18.43,91.344-18.43     s62.406,6.195,91.328,18.43c27.938,11.82,53.047,28.742,74.594,50.297c21.562,21.562,38.484,46.656,50.297,74.602     c12.234,28.914,18.438,59.648,18.438,91.336s-6.203,62.422-18.438,91.344C464.22,366.282,453.845,383.906,441.282,400.032z" fill="#FFFFFF"/>
			<path d="M256,96c-32.953,0-63.562,9.961-89.016,27.031c-4.844-2.938-10.516-4.625-16.578-4.625c-17.688,0-32,14.328-32,32     c0,6.07,1.688,11.742,4.625,16.578c-17.078,25.453-27.047,56.07-27.047,89.016c0,88.375,71.641,160,160.016,160     c88.359,0,160-71.625,160-160C416,167.633,344.359,96,256,96z M150.406,139.742c5.875,0,10.656,4.781,10.656,10.664     s-4.781,10.664-10.656,10.664c-5.891,0-10.672-4.781-10.672-10.664S144.516,139.742,150.406,139.742z M394.656,256     c0,18.719-3.656,36.891-10.875,53.969c-7,16.5-17,31.343-29.734,44.093c-12.734,12.734-27.578,22.734-44.078,29.719     C292.875,391,274.719,394.672,256,394.672c-18.734,0-36.891-3.672-53.969-10.891c-16.516-6.984-31.344-16.984-44.094-29.719     c-12.734-12.75-22.75-27.594-29.719-44.094c-7.234-17.078-10.891-35.25-10.891-53.969c0-18.727,3.656-36.891,10.891-53.969     c3.172-7.531,7-14.695,11.422-21.484c3.359,1.203,6.984,1.859,10.766,1.859c17.672,0,32-14.328,32-32     c0-3.773-0.672-7.398-1.875-10.758c6.797-4.414,13.969-8.242,21.5-11.43c17.078-7.227,35.234-10.891,53.969-10.891     c18.719,0,36.875,3.664,53.969,10.891c16.5,6.984,31.344,16.984,44.078,29.727c12.734,12.743,22.734,27.578,29.734,44.086     C391,219.109,394.656,237.273,394.656,256z" fill="#FFFFFF"/>
		</g>
	</g>
</g>
<g>
</g>
<g>
</g>
<g>
</g>
<g>
</g>
<g>
</g>
<g>
</g>
<g>
</g>
<g>
</g>
<g>
</g>
<g>
</g>
<g>
</g>
<g>
</g>
<g>
</g>
<g>
</g>
<g>
</g>
</svg>
