<?xml version="1.0" encoding="iso-8859-1"?>
<!-- Generator: Adobe Illustrator 19.0.0, SVG Export Plug-In . SVG Version: 6.00 Build 0)  -->
<svg xmlns="http://www.w3.org/2000/svg" xmlns:xlink="http://www.w3.org/1999/xlink" version="1.1" id="Layer_1" x="0px" y="0px" viewBox="0 0 512 512" style="enable-background:new 0 0 512 512;" xml:space="preserve" width="512px" height="512px">
<g>
	<g>
		<path d="M358.861,119.866C352.924,52.748,332.313,6.123,300.782,0.552c-1.609-0.289-3.234-0.461-4.891-0.523    c-30.25-1.203-63.375,34.922-90.345,92.93c-69.625,21.524-120.204,86.392-120.204,163.08c0,55.618,26.61,105.04,67.798,136.18    c5.953,67.063,26.562,113.658,58.062,119.221c1.625,0.281,3.25,0.469,4.891,0.531c30.267,1.203,63.36-34.892,90.329-92.877    c69.642-21.5,120.237-86.36,120.237-163.055C426.659,200.421,400.05,151.015,358.861,119.866z M274.954,433.812    c-10.937,19.408-22.609,34.892-33.75,44.783c-9.109,8.095-17.5,12.22-24.25,11.938c-0.688-0.016-1.36-0.094-2.048-0.219    c-8.047-1.406-14.641-9.813-18.766-16.61c-7.531-12.438-13.641-30.688-17.688-52.782c-0.828-4.531-1.562-9.203-2.219-13.984    c23.375,12.375,49.97,19.484,78.188,19.75c0.656-1.141,1.312-2.281,1.969-3.438c3.25-5.781,6.406-11.844,9.469-18.203    c-3.281,0.203-6.562,0.328-9.859,0.328c-20.172,0-39.719-3.953-58.11-11.734c-17.781-7.516-33.766-18.297-47.484-32.016    s-24.484-29.688-32-47.469c-7.781-18.406-11.735-37.938-11.735-58.118c0-20.164,3.954-39.727,11.735-58.118    c7.516-17.781,18.281-33.75,32-47.477c13.719-13.719,29.703-24.492,47.484-32.008c18.392-7.781,37.938-11.727,58.11-11.727    s39.719,3.945,58.125,11.727c0.609,0.258,1.219,0.531,1.828,0.797c-0.875-8.477-2-16.57-3.391-24.25    C294.859,88.771,275.828,85.38,256,85.38c-8.062,0-15.984,0.562-23.734,1.648c1.562-3.016,3.156-5.961,4.781-8.828    c10.938-19.407,22.594-34.899,33.75-44.797c9.109-8.086,17.5-12.219,24.25-11.953c0.688,0.031,1.359,0.109,2.031,0.219    c8.047,1.43,14.656,9.828,18.766,16.625c7.547,12.438,13.656,30.688,17.688,52.782c4.313,23.586,6.235,50.672,5.688,80.5    c-0.578,31.258-3.829,64.032-9.688,97.422C318.376,332.608,298.985,391.14,274.954,433.812z M361.595,361.626    c-12.718,12.718-27.375,22.905-43.61,30.312c13.531-34.797,24.86-75.359,32.563-119.219c7.688-43.922,10.844-85.985,9.938-123.361    c0.375,0.359,0.75,0.719,1.109,1.086c13.719,13.727,24.484,29.696,32.017,47.477c7.766,18.391,11.719,37.954,11.719,58.118    c0,20.18-3.953,39.711-11.719,58.118C386.08,331.938,375.314,347.907,361.595,361.626z" fill="#FFFFFF"/>
	</g>
</g>
<g>
</g>
<g>
</g>
<g>
</g>
<g>
</g>
<g>
</g>
<g>
</g>
<g>
</g>
<g>
</g>
<g>
</g>
<g>
</g>
<g>
</g>
<g>
</g>
<g>
</g>
<g>
</g>
<g>
</g>
</svg>
