<?xml version="1.0" encoding="iso-8859-1"?>
<!-- Generator: Adobe Illustrator 19.0.0, SVG Export Plug-In . SVG Version: 6.00 Build 0)  -->
<svg xmlns="http://www.w3.org/2000/svg" xmlns:xlink="http://www.w3.org/1999/xlink" version="1.1" id="Layer_1" x="0px" y="0px" viewBox="0 0 512 512" style="enable-background:new 0 0 512 512;" xml:space="preserve" width="512px" height="512px">
<g>
	<g>
		<path d="M256,0C114.617,0,0,114.617,0,256c0,141.391,114.617,256,256,256c141.375,0,256-114.609,256-256    C512,114.617,397.375,0,256,0z M164.665,39.766C193.578,27.539,224.312,21.328,256,21.328s62.406,6.211,91.344,18.438    c27.938,11.812,53.031,28.742,74.594,50.297c21.562,21.562,38.469,46.656,50.297,74.602c2.109,5.008,4.031,10.062,5.797,15.164    c-157.719-1.266-251.875-28.852-303.398-52.078c-45.359-20.438-66.203-41.047-72.844-48.633    C120.563,62.712,141.649,49.501,164.665,39.766z M347.343,472.235c-28.937,12.218-59.655,18.437-91.343,18.437    s-62.422-6.219-91.336-18.438c-15.219-6.438-29.586-14.406-43-23.781c15.625-4.469,38.719-9.938,67.398-13.406    c46.586-5.656,117.125-6.969,197.375,16.094C374.156,459.36,361.093,466.422,347.343,472.235z M472.235,347.331    c-11.829,27.95-28.735,53.044-50.297,74.607c-4.656,4.641-9.484,9.078-14.453,13.297c-38.797-12.438-78.766-20.312-118.938-23.469    c-34.391-2.719-69.008-1.969-102.898,2.188c-40.281,4.969-69.711,13.5-84.398,18.469c-3.82-3.375-7.562-6.859-11.188-10.484    c-21.555-21.562-38.484-46.656-50.297-74.609c-11.484-27.141-17.648-55.891-18.359-85.531c16.43-1.5,69.734-5.375,142.125-0.781    c78.82,4.984,196.781,21.297,314.75,70.422C476.454,336.799,474.454,342.096,472.235,347.331z M317.938,260.203    c-49.656-10.336-101.328-17.234-153.594-20.516c-71.055-4.477-123.078-1.078-142.484,0.625    c1.711-26.141,7.703-51.523,17.906-75.648c11.132-26.32,26.796-50.102,46.586-70.797c8.898,9.992,31.461,31.25,76.891,52.141    c35.016,16.102,76.828,28.906,124.273,38.062c57.578,11.117,123.734,16.867,196.719,17.125    c4.266,17.828,6.422,36.148,6.422,54.805c0,18.672-2.156,36.984-6.422,54.812C432.376,289.406,376.501,272.39,317.938,260.203z" fill="#FFFFFF"/>
	</g>
</g>
<g>
</g>
<g>
</g>
<g>
</g>
<g>
</g>
<g>
</g>
<g>
</g>
<g>
</g>
<g>
</g>
<g>
</g>
<g>
</g>
<g>
</g>
<g>
</g>
<g>
</g>
<g>
</g>
<g>
</g>
</svg>
